<svg width="182" height="437" viewBox="0 0 182 437" fill="none" xmlns="http://www.w3.org/2000/svg">
<path fill-rule="evenodd" clip-rule="evenodd" d="M363.967 158.906C364.132 176.376 363.905 193.845 361.871 211.207C358.57 239.375 351.935 266.696 340.782 292.88C329.42 319.548 314.336 343.835 294.884 365.316C265.995 397.205 231.402 420.589 190.877 435.4C183.287 438.172 177.118 437.036 170.192 434.326C120.203 414.771 79.4686 383.331 48.6707 339.364C27.4172 309.032 13.7596 275.314 6.36828 239.074C0.0109845 207.918 -0.500379 176.358 0.277949 144.737C0.817666 122.887 2.15845 101.077 3.84009 79.289C4.43094 71.6137 5.52745 63.9781 6.28873 56.3198C6.43076 54.8654 7.22043 54.6836 8.32827 54.3996C27.2979 49.5023 46.2959 44.7244 65.2087 39.6057C95.4101 31.436 125.89 24.2777 155.841 15.1991C165.079 12.3983 173.112 7.3306 180.322 0.996028C181.736 -0.248161 182.322 -0.407235 183.844 0.978985C193.224 9.51219 204.529 14.4321 216.613 17.6534C242.236 24.4879 267.892 31.1861 293.537 37.924C313.626 43.2075 333.698 48.5422 353.832 53.661C356.928 54.4507 357.923 55.6835 358.275 58.9105C361.934 92.1513 363.564 125.489 363.967 158.906ZM276.988 152.986C275.215 137.465 269.812 123.461 258.524 112.439C255.195 109.195 253.598 105.996 253.076 101.616C252.854 99.7585 253.405 99.4972 254.769 99.1165C265.478 96.1055 276.357 93.9466 287.441 93.0774C302.86 91.8729 318.239 92.2536 333.442 95.4976C335.135 95.8612 335.726 95.3783 335.516 93.5944C335.061 89.7652 334.726 85.9247 334.402 82.0842C333.806 74.9486 333.823 74.9486 326.824 73.1249C296.264 65.1541 265.665 57.3368 235.157 49.1501C217.647 44.4461 199.859 40.5942 183.015 33.6517C181.799 33.1518 180.975 33.5608 180.009 33.9471C175.351 35.8049 170.732 37.7649 165.869 39.0602C121.532 50.8545 77.2075 62.6601 32.8542 74.3804C30.4851 75.0054 29.6499 76.0962 29.4908 78.4539C28.4455 94.1568 27.1843 109.848 26.1617 125.551C24.4175 152.31 24.1732 179.057 26.8547 205.787C28.9 226.234 32.9223 246.255 39.6432 265.701C56.221 313.696 85.5759 352.113 126.628 381.769C143.479 393.938 161.579 403.778 181.038 411.118C181.998 409.601 181.77 407.931 182.032 406.363C182.299 404.784 182.441 403.181 182.77 401.613C187.446 379.326 196.576 358.845 208.103 339.342C208.824 338.126 209.586 337.558 211.069 337.393C228.794 335.456 244.491 328.593 257.848 316.895C281.203 296.448 292.554 270.269 293.605 239.454C293.708 236.466 293.276 233.46 293.225 230.466C293.179 227.461 292.81 224.513 292.015 220.825C291.231 233.699 289.288 245.556 285.436 257.083C277.743 280.115 265.097 299.635 245.054 313.799C236.924 319.548 227.913 323.599 217.829 326.002C221.289 318.503 223.454 311.134 223.777 302.902C208.62 312.895 192.525 319.849 175.555 324.866C166.846 327.434 158.12 329.922 150.45 335.103C149.086 336.018 147.297 336.387 145.649 336.779C137.962 338.609 130.776 335.62 123.35 334.706C123.629 332.734 125.191 331.564 125.242 329.445C122.919 331.07 121.413 333.001 120.271 335.12C119.3 336.921 118.334 336.904 116.76 336.012C110.723 332.596 104.786 329.007 98.9495 325.246C93.5581 321.775 90.6606 317.372 89.6664 310.879C88.6211 304.021 87.8939 296.744 82.6444 291.261C81.9116 290.494 82.3206 289.699 82.5876 288.869C83.6216 285.699 84.417 282.433 83.8204 279.109C83.5364 277.53 84.5249 277.609 85.326 277.285C89.4733 275.587 93.5922 273.837 97.2622 271.212C113.704 259.463 125.481 244.573 128.838 224.069C129.094 222.507 129.713 221.757 131.242 221.234C134.446 220.138 137.36 218.439 140.655 215.809C138.116 216.161 136.389 216.445 134.65 216.633C132.736 216.837 130.77 217.28 128.901 217.047C120.976 216.059 122.027 217.405 119.305 210.15C118.703 208.554 118.243 206.906 117.811 205.253C115.198 195.243 114.942 185.153 116.607 174.404C119.476 177.904 122.214 180.739 125.225 183.307C128.242 185.88 131.423 188.215 134.838 190.232C151.876 200.288 171.391 195.834 182.424 179.46C186.531 173.364 189.014 166.558 191.508 159.747C196.536 146.015 205.098 135.397 218.369 128.818C220.352 127.835 221.761 127.625 223.789 129.227C227.987 132.533 231.964 135.976 235.123 140.357C233.288 135.368 230.709 130.869 227.146 127.017C223.221 122.773 219.125 118.688 215.182 114.461C209.79 108.672 206.245 101.912 205.421 93.9864C204.558 85.635 203.66 77.312 200.189 69.006C209.949 71.7898 219.022 74.4486 227.442 78.9084C235.867 83.3795 241.821 89.9527 244.031 99.4062C245.383 105.207 246.383 111.093 247.497 116.95C248.638 122.961 249.724 128.983 250.837 134.999C250.962 134.98 251.087 134.963 251.212 134.948C251.865 129.608 252.524 124.262 253.24 118.433C263.677 128.551 271.165 140.158 276.988 152.986ZM143.615 240.204C153.006 238.858 161.307 235.489 165.977 226.785C169.726 219.803 174.981 215.139 182.412 212.542C188.474 210.423 193.491 206.594 197.661 201.719C201.189 197.595 203.876 192.959 205.433 187.596C204.512 188.028 204.052 188.851 203.439 189.545C198.746 194.828 193.059 198.737 186.48 201.254C182.81 202.657 178.992 203.668 175.248 204.89C166.852 207.617 160.608 212.633 157.898 221.348C155.415 229.336 151.217 236.017 143.615 240.204ZM165.857 247.152C179.14 255.259 192.57 253.248 200.558 245.465C206.251 239.92 209.608 227.563 206.694 221.564C200.854 241.982 186.293 248.612 165.857 247.152ZM140.394 301.078C137.144 294.914 130.531 291.449 123.879 292.375C118.379 293.142 114.016 297.846 112.408 304.317C111.193 309.208 112.045 313.975 112.681 319.293C115.346 315.333 117.788 311.759 120.175 308.146C125.112 300.669 132.139 299.158 140.394 301.078ZM233.663 241.63C231.055 256.754 223.471 268.292 208.347 275.269C224.425 274.365 238.043 257.901 233.663 241.63ZM190.258 224.876C185.492 224.473 181.628 226.007 178.481 229.398C178.078 229.824 177.157 230.421 177.748 230.893C179.362 232.194 180.901 233.716 183.191 233.887C185.338 234.046 187.219 233.841 188.344 231.643C189.423 229.529 189.775 227.251 190.258 224.876Z" fill="#ffffff"/>
<path d="M55.3348 98.338C55.8802 104.173 55.937 109.894 56.4483 115.603C59.2946 147.242 67.9983 176.762 88.2859 201.901C95.1773 210.44 103.233 217.82 113.817 221.768C115.505 222.399 117.232 223.268 118.976 223.342C121.521 223.45 121.845 224.552 121.663 226.745C120.516 240.408 113.215 250.709 103.529 259.56C97.9611 264.65 91.2573 267.923 84.258 270.786C81.0594 272.093 79.9857 270.843 78.4745 268.729C66.1405 251.453 57.9028 232.324 52.6704 211.826C46.7335 188.562 45.529 164.973 47.3186 141.106C48.3413 127.426 50.5342 114.001 54.5111 100.878C54.7724 100.025 55.0565 99.1845 55.3348 98.338Z" fill="#ffffff"/>
<path d="M191.031 139.72C187.582 132.664 182.662 127.193 177.282 122.154C168.17 113.626 163.545 103.304 163.88 90.7537C164.045 84.7032 163.909 78.6413 163.909 72.0568C170.789 78.63 179.248 82.0558 186.952 86.703C192.815 90.231 196.553 95.418 198.615 101.804C200.854 108.712 204.098 114.978 209.262 120.154C209.961 120.853 210.79 121.324 209.29 122.245C202.047 126.687 195.86 132.301 191.031 139.72Z" fill="#ffffff"/>
</svg>
